<svg xmlns="http://www.w3.org/2000/svg" viewBox="0 0 221.83 71.3"><defs><style>.cls-1{fill:#2319dc;}.cls-2{fill:#fff;}.cls-3{fill:#e10601;}</style></defs><path id="path2227" class="cls-1" d="M86.45,37.58c7.75-1.67,6.69-10.94,6.46-13-.38-3.12-4.06-8.58-9-8.15-6.28.56-7.19,9.62-7.19,9.62-.85,4.2,2,13.15,9.77,11.49M100.84,22c4.28,0,7.74-4.93,7.74-11s-3.46-11-7.74-11S93.1,4.92,93.1,11s3.47,11,7.75,11m18.44.73c5.73.75,9.4-5.36,10.13-10s-2.95-10-7-10.92-9.14,5.57-9.59,9.81c-.56,5.19.74,10.36,6.46,11.1M142,30.54c0-2.21-1.83-8.89-8.66-8.89s-7.74,6.3-7.74,10.75c0,4.25.35,10.17,8.85,10S142,32.76,142,30.54M133.31,50s-8.85-6.85-14-14.25c-7-10.92-17-6.47-20.3-.93s-8.48,9.07-9.21,10-10.69,6.29-8.49,16.1,10,9.62,10,9.62a43.57,43.57,0,0,0,12.35-.92A26,26,0,0,1,116,70s15.5,5.2,19.73-4.8S133.31,50,133.31,50"/><path id="path2229" class="cls-2" d="M102.22,40.42V47H96.85a8.85,8.85,0,0,0-7.24,6.53,11.5,11.5,0,0,0,.79,7,8.83,8.83,0,0,0,6.31,4.35h10.07V40.5Zm-.08,20.43H98.08a4.28,4.28,0,0,1-3.69-3.4,6.54,6.54,0,0,1,.29-3.76,4.74,4.74,0,0,1,3.11-2.76h4.34v9.92Z"/><path id="path2231" class="cls-2" d="M109.25,47.6V60.43s.21,3.19,4.71,4.35h11.59V47.6h-5V60.5h-4.77s-1.53-.22-1.81-1.45V47.53Z"/><path id="path2233" class="cls-3" d="M180.78,39.18V33.78H145.17l0,5.49h15.31L159,42.54H146V69.67H176.9c3.23,0,2.95-3.27,2.95-3.27V42.55h-13L168,39.19h12.82Zm-6.92,24.7s-.37.9-.9.9H152.44V58.45h21.43v5.43Zm0-10.65h-21.4V47.29h21.4v5.93Z"/><path id="path2235" class="cls-3" d="M221.47,33.92h-14V31.19h-6.55v2.6h-16V69.62h5.77V38.41h30.79Zm-3.77,7.42V39.26h-5.63v2.07H200.48v-2h-5.34v2h-3.6l.07,4.06h3.53V53h19.49c2.71,0,3.06-2.85,3.06-2.85V45.4h4.13V41.34H217.7Zm-5.63,6.83s-.5.92-1.15.92h-10.5V45.32h11.65v2.85h0ZM192.33,58.58l9,5.2c-.71.78-3.77,1.77-3.77,1.77h-6v4h8.12a39.28,39.28,0,0,0,6.91-2.78c1.86,1.71,5.43,2.42,5.43,2.42h9.26v-4h-7a10.52,10.52,0,0,1-3.57-1.35l10.55-6.06V54.51H192.33v4.06ZM211,58.51l-5.13,2.71-4.7-2.71Z"/><path id="path2237" class="cls-3" d="M65.93,39.63H73.7V32.78H65.93Zm0,29.84H73.7V42.61H65.93Z"/><path id="path2239" class="cls-3" d="M53.29,42.63l-16.58,0v5.65H51.25s3.46.85,3.46,3v2H41.55s-5.17.48-6.84,6.66A11.14,11.14,0,0,0,35,64.78a8.15,8.15,0,0,0,6.22,4.79h21V50.33s-1-6.6-8.88-7.7m1.42,21.62H44.12a3.49,3.49,0,0,1-2-1.76,2.5,2.5,0,0,1,0-1.94,4,4,0,0,1,2.28-2H54.71Z"/><path id="path2241" class="cls-3" d="M33,60.05a9.25,9.25,0,0,0-5.64-8.8c5-2.6,4.34-9.15,4.34-9.15-.54-10-12.78-9.55-12.78-9.55H0V69.9H21.36C33.91,69.85,33,60.05,33,60.05M20.93,63v0H8.14V54.91H20.87l.43.09a4.71,4.71,0,0,1,3.3,2.62A4.79,4.79,0,0,1,24,61.19,4.3,4.3,0,0,1,20.93,63m2.71-17.32a4.33,4.33,0,0,1-3.14,1.92H8.14V39.83H20.45s2.68-.12,3.56,2a6,6,0,0,1-.37,3.81"/></svg>
