<?xml version="1.0" encoding="UTF-8" standalone="no"?>
<!-- Created with Inkscape (http://www.inkscape.org/) -->

<svg width="620.25" height="182.34375" xmlns="http://www.w3.org/2000/svg">
 <defs>
  <clipPath clipPathUnits="userSpaceOnUse" id="clipPath3020">
   <path d="m0,0l4802,0l0,1298.75l-4802,0l0,-1298.75z" id="path3022"/>
  </clipPath>
 </defs>
 <metadata id="metadata7">image/svg+xml</metadata>
 <g>
  <title>Layer 1</title>
  <g id="layer1">
   <g id="g3012">
    <g id="g3014">
     <g id="g3016">
      <g id="g3018" clip-path="url(#clipPath3020)">
       <path fill="#161312" fill-rule="nonzero" d="m125.62163,79.48438l-50.44587,0c-1.30125,0 -2.35688,1.05611 -2.35688,2.35838l0,24.66312c0,1.30125 1.05563,2.36087 2.35688,2.36087l19.67924,0l0,30.64199c0,0 -4.41949,1.50639 -16.63475,1.50639c-14.41262,0 -34.54588,-5.26662 -34.54588,-49.53902c0,-44.28237 20.96425,-50.10863 40.64687,-50.10863c17.03712,0 24.37749,3.00001 29.04787,4.44501c1.46725,0.45 2.82475,-1.01125 2.82475,-2.31375l5.62737,-23.83c0,-0.60875 -0.206,-1.3425 -0.90087,-1.84125c-1.89687,-1.35249 -13.46825,-7.8275 -42.70013,-7.8275c-33.67675,0 -68.22026,14.3275 -68.22026,83.20263c0,68.87746 39.54939,79.14114 72.87751,79.14114c27.59463,0 44.33537,-11.79248 44.33537,-11.79248c0.68999,-0.38135 0.76413,-1.34529 0.76413,-1.78763l0,-76.92088c0,-1.30225 -1.05412,-2.35838 -2.35538,-2.35838" id="path3024"/>
       <path fill="#161312" fill-rule="nonzero" d="m385.59375,18.2525c0,-1.3125 -1.04001,-2.37125 -2.34125,-2.37125l-28.40375,0c-1.29752,0 -2.35251,1.05875 -2.35251,2.37125c0,0.00626 0.00751,54.89063 0.00751,54.89063l-44.27374,0l0,-54.89063c0,-1.3125 -1.04501,-2.37125 -2.34375,-2.37125l-28.4025,0c-1.29251,0 -2.34625,1.05875 -2.34625,2.37125l0,148.62883c0,1.31105 1.05374,2.3784 2.34625,2.3784l28.4025,0c1.29874,0 2.34375,-1.06737 2.34375,-2.3784l0,-63.5737l44.27374,0c0,0 -0.07751,63.56882 -0.07751,63.5737c0,1.31105 1.05377,2.3784 2.35251,2.3784l28.47125,0c1.30124,0 2.34125,-1.06737 2.34375,-2.3784l0,-148.62883" id="path3026"/>
       <path fill="#161312" fill-rule="nonzero" d="m179.22,37.75625c0,-10.22749 -8.2,-18.49249 -18.31625,-18.49249c-10.10625,0 -18.3125,8.265 -18.3125,18.49249c0,10.21687 8.20625,18.504 18.3125,18.504c10.11626,0 18.31625,-8.28712 18.31625,-18.504" id="path3028"/>
       <path fill="#161312" fill-rule="nonzero" d="m177.18875,135.52875c0,-3.808 0,-68.60739 0,-68.60739c0,-1.30275 -1.05125,-2.36761 -2.35001,-2.36761l-28.31375,0c-1.29874,0 -2.46126,1.33975 -2.46126,2.642c0,0 0,82.55675 0,98.29401c0,2.88913 1.79999,3.74753 4.12999,3.74753c0,0 12.08499,0 25.50999,0c2.79875,0 3.485,-1.37352 3.485,-3.79344c0,-5.26906 0,-25.90871 0,-29.9151" id="path3030"/>
       <path fill="#161312" fill-rule="nonzero" d="m493.54001,64.77737l-28.18625,0c-1.29251,0 -2.345,1.06538 -2.345,2.37637l0,72.87751c0,0 -7.16,5.23875 -17.32376,5.23875c-10.16248,0 -12.85999,-4.61125 -12.85999,-14.56252c0,-9.96338 0,-63.55376 0,-63.55376c0,-1.311 -1.05002,-2.37638 -2.34375,-2.37638l-28.60626,0c-1.29123,0 -2.34875,1.06538 -2.34875,2.37638c0,0 0,38.81012 0,68.36624c0,29.55766 16.47375,36.7886 39.13626,36.7886c18.59125,0 33.58124,-10.27101 33.58124,-10.27101c0,0 0.71378,5.41261 1.03625,6.0547c0.32376,0.64014 1.16501,1.28662 2.07376,1.28662l18.19876,-0.08009c1.29123,0 2.34872,-1.06737 2.34872,-2.37256l-0.00873,-99.77251c0,-1.311 -1.05377,-2.37637 -2.35251,-2.37637" id="path3032"/>
       <path fill="#161312" fill-rule="nonzero" d="m559.45874,145.18011c-9.77625,-0.29774 -16.40747,-4.73387 -16.40747,-4.73387l0,-47.06787c0,0 6.54248,-4.00975 14.56873,-4.72649c10.15002,-0.90926 19.92999,2.15675 19.92999,26.36962c0,25.53224 -4.41376,30.57074 -18.09125,30.15862zm11.11749,-83.74162c-16.00873,0 -26.89752,7.14249 -26.89752,7.14249l0,-50.3285c0,-1.3125 -1.04871,-2.37125 -2.34375,-2.37125l-28.4837,0c-1.29501,0 -2.3475,1.05875 -2.3475,2.37125l0,148.62884c0,1.31105 1.05249,2.3784 2.35123,2.3784c0.0025,0 19.75629,0 19.76251,0c0.89001,0 1.56372,-0.45848 2.06128,-1.26219c0.49121,-0.79883 1.19995,-6.85254 1.19995,-6.85254c0,0 11.64752,11.03761 33.69629,11.03761c25.88501,0 40.72998,-13.13037 40.72998,-58.94337c0,-45.81401 -23.70874,-51.80075 -39.72876,-51.80075" id="path3034"/>
       <path fill="#161312" fill-rule="nonzero" d="m258.82248,64.54049l-21.30623,0c0,0 -0.0325,-28.14175 -0.0325,-28.14799c0,-1.065 -0.54875,-1.5975 -1.78,-1.5975l-29.035,0c-1.12875,0 -1.735,0.49625 -1.735,1.58125l0,29.08712c0,0 -14.55,3.51275 -15.53374,3.79638c-0.98001,0.28425 -1.70125,1.1875 -1.70125,2.26563l0,18.27838c0,1.31438 1.05,2.3745 2.34875,2.3745l14.88623,0c0,0 0,19.11762 0,43.97312c0,32.66113 22.90999,35.87012 38.37001,35.87012c7.06374,0 15.51375,-2.26906 16.90874,-2.78419c0.84375,-0.31003 1.33377,-1.18358 1.33377,-2.13083l0.02374,-20.10797c0,-1.31099 -1.10751,-2.37198 -2.35501,-2.37198c-1.24124,0 -4.4175,0.50487 -7.6875,0.50487c-10.465,0 -14.01125,-4.86623 -14.01125,-11.16463c0,-6.29388 -0.00125,-41.7885 -0.00125,-41.7885l21.30751,0c1.29877,0 2.35001,-1.06013 2.35001,-2.3745l0,-22.895c0,-1.31213 -1.05124,-2.36825 -2.35001,-2.36825" id="path3036"/>
      </g>
     </g>
    </g>
   </g>
  </g>
 </g>
</svg>
