<svg xmlns="http://www.w3.org/2000/svg" viewBox="0 0 269.64 88.76"><defs><style>.cls-1{fill:#ea4335;}.cls-2{fill:#fbbc05;}.cls-3{fill:#4285f4;}.cls-4{fill:#34a853;}</style></defs><path class="cls-1" d="M115.39,46.71a22.25,22.25,0,0,1-44.5,0,22.25,22.25,0,0,1,44.5,0Zm-9.74,0c0-8-5.79-13.44-12.51-13.44S80.63,38.73,80.63,46.71s5.79,13.44,12.51,13.44S105.65,54.6,105.65,46.71Z"/><path class="cls-2" d="M163.39,46.71a22.25,22.25,0,0,1-44.5,0,22.25,22.25,0,0,1,44.5,0Zm-9.74,0c0-8-5.79-13.44-12.51-13.44s-12.51,5.46-12.51,13.44,5.79,13.44,12.51,13.44S153.65,54.6,153.65,46.71Z"/><path class="cls-3" d="M209.39,25.87V65.69c0,16.38-9.66,23.07-21.08,23.07a21.12,21.12,0,0,1-19.66-13.07l8.48-3.53c1.51,3.61,5.21,7.87,11.17,7.87,7.31,0,11.84-4.51,11.84-13V63.84h-.34a15.1,15.1,0,0,1-11.68,5c-11.09,0-21.25-9.66-21.25-22.09S177,24.53,188.12,24.53a15.37,15.37,0,0,1,11.68,5h.34V25.88h9.25Zm-8.56,20.92c0-7.81-5.21-13.52-11.84-13.52S176.64,39,176.64,46.79,182.27,60.15,189,60.15,200.83,54.52,200.83,46.79Z"/><path class="cls-4" d="M224.64,2.53v65h-9.5v-65Z"/><path class="cls-1" d="M261.66,54l7.56,5a22.08,22.08,0,0,1-18.48,9.83c-12.6,0-22-9.74-22-22.18,0-13.19,9.49-22.18,20.92-22.18s17.14,9.16,19,14.11l1,2.52L240,53.43c2.27,4.45,5.8,6.72,10.75,6.72s8.4-2.44,10.92-6.14Zm-23.27-8,19.82-8.23c-1.09-2.77-4.37-4.7-8.23-4.7A12.17,12.17,0,0,0,238.39,46Z"/><path class="cls-3" d="M34.93,40.94V31.53H66.64a31.18,31.18,0,0,1,.47,5.68c0,7.06-1.93,15.79-8.15,22-6,6.3-13.78,9.66-24,9.66C16,68.88,0,53.42,0,34.44S16,0,34.94,0a32.82,32.82,0,0,1,23.6,9.49L51.9,16.13a24,24,0,0,0-17-6.72,24.7,24.7,0,0,0-24.7,25,24.7,24.7,0,0,0,24.7,25c9,0,14.11-3.61,17.39-6.89,2.66-2.66,4.41-6.46,5.1-11.65Z"/></svg>
