<?xml version="1.0" encoding="UTF-8"?>
<svg width="329.67" height="116.61" version="1.1" viewBox="0 0 197.8 69.967" xmlns="http://www.w3.org/2000/svg">
<path d="m-3.6332 0h202v70h-202z"/>
<path d="m184.05 10.15h-72.121c-2.244 0.252-3.478 1.624-3.696 4.128v41.445c0.215 2.501 1.447 3.868 3.676 4.129h72.158c2.23-0.261 3.461-1.629 3.677-4.129v-41.445c-0.217-2.504-1.452-3.876-3.694-4.128" fill="#f7971d"/>
<path d="m180.44 29.451c-1.224-1.352-2.868-2.22-4.659-2.619-0.513-0.136-1.099-0.233-1.751-0.262-2.368-0.215-5.41 0.732-6.824 1.919l0.343-9.704h-5.759v30.044h5.35v-1.655c1.233 0.993 3.213 2.146 6.229 2.146 0.118 0 0.23-1e-3 0.339-3e-3 0.078 2e-3 0.157 3e-3 0.235 3e-3 2.528 0 4.677-1.004 6.445-3.012 1.769-2.01 2.654-4.87 2.654-8.586 0-3.594-0.868-6.35-2.602-8.271m-4.642 13.691c-0.894 1.086-1.977 1.628-3.248 1.628-1.654 0-2.979-0.765-3.976-2.295-0.71-1.079-1.066-2.745-1.066-5 0-2.186 0.458-3.815 1.373-4.887 0.916-1.072 2.063-1.609 3.443-1.609 1.408 0 2.562 0.55 3.464 1.649 0.901 1.1 1.353 2.894 1.353 5.379 0 2.338-0.448 4.048-1.343 5.135m-23.289-6.897c0 3.115-0.143 5.072-0.43 5.872-0.287 0.799-0.82 1.469-1.599 2.007-0.778 0.541-1.66 0.81-2.643 0.81-0.861 0-1.572-0.201-2.132-0.604s-0.947-0.95-1.158-1.64c-0.212-0.69-0.317-2.564-0.317-5.626v-10h-5.758v13.772c0 2.049 0.259 3.654 0.778 4.816 0.519 1.161 1.359 2.063 2.52 2.705 1.162 0.642 2.473 0.963 3.935 0.963 0.219 0 0.436-8e-3 0.651-0.023 0.01 0 0.011 0 0.017-2e-3 3.665-0.106 5.574-1.768 6.546-2.864v2.397h5.348v-21.764h-5.758zm-18.79-7.049c-0.54-0.764-1.342-1.393-2.407-1.885-0.964-0.445-2.033-0.686-3.209-0.729-0.02-1e-3 -0.038-3e-3 -0.058-4e-3 -2.427-0.129-5.531 0.579-6.98 1.973v-9.766h-5.758v30.043h5.758v-10.901c0-1.831 0.175-3.215 0.523-4.15 0.349-0.937 0.898-1.637 1.65-2.102 0.751-0.463 1.604-0.696 2.562-0.696 0.832 0 1.527 0.181 2.079 0.543 0.553 0.362 0.94 0.851 1.158 1.465 0.218 0.616 0.328 2.063 0.328 4.344v11.497h5.758v-12.767c0-1.953-0.1-3.395-0.298-4.323-0.197-0.931-0.567-1.777-1.106-2.542"/>
<path d="m101.25 30.514c-0.223-0.948-0.618-1.797-1.184-2.544-0.569-0.747-1.406-1.362-2.513-1.843s-2.328-0.721-3.665-0.721c-2.423-0.138-6.356 0.787-7.544 2.669v-2.153h-5.626v22.892h6.057v-10.367c0-2.558 0.155-4.312 0.464-5.26 0.308-0.949 0.88-1.71 1.714-2.285 0.833-0.575 1.774-0.863 2.823-0.863 0.819 0 1.52 0.203 2.102 0.604 0.582 0.402 1.003 0.967 1.261 1.692 0.259 0.727 0.388 2.325 0.388 4.796v11.683h6.057v-14.226c0-1.768-0.111-3.126-0.334-4.074m-28.861-5.021c-1.792 0.229-3.505 1.675-4.255 2.596v-2.166h-5.626v22.892h6.057v-7.07c0-3.895 0.169-6.452 0.507-7.674 0.337-1.222 0.801-2.065 1.39-2.533 0.589-0.467 1.308-0.701 2.156-0.701 0.876 0 1.824 0.33 2.845 0.991l1.876-5.281c-1.279-0.761-2.609-1.141-3.988-1.141-0.333 0-0.653 0.03-0.962 0.087m-24.704-0.088c-2.242 0-4.272 0.495-6.089 1.488-1.819 0.99-3.223 2.427-4.215 4.31-0.991 1.883-1.487 3.83-1.487 5.842 0 2.63 0.496 4.861 1.487 6.692 0.992 1.834 2.439 3.224 4.344 4.171 1.904 0.948 3.905 1.424 6.003 1.424 3.391 0 6.204-1.139 8.439-3.417s3.352-5.148 3.352-8.613c0-3.433-1.106-6.275-3.319-8.524-2.214-2.248-5.052-3.373-8.515-3.373m3.999 17.18c-1.071 1.207-2.397 1.811-3.978 1.811s-2.91-0.604-3.987-1.811c-1.078-1.208-1.617-2.947-1.617-5.217s0.539-4.01 1.617-5.217c1.077-1.206 2.406-1.81 3.987-1.81s2.907 0.604 3.978 1.81c1.07 1.207 1.606 2.933 1.606 5.174 0 2.3-0.536 4.052-1.606 5.26m-23.469-24.897c-1.178-0.317-3.707-0.475-7.587-0.475h-10.239v31.601h6.38v-11.92h4.16c2.889 0 5.095-0.151 6.618-0.453 1.122-0.244 2.224-0.744 3.309-1.498s1.979-1.792 2.684-3.115c0.704-1.321 1.056-2.953 1.056-4.893 0-2.515-0.611-4.566-1.832-6.155-1.222-1.587-2.738-2.619-4.549-3.092m-0.916 11.791c-0.481 0.705-1.145 1.222-1.993 1.552s-2.531 0.495-5.045 0.495h-3.492v-8.967h3.083c2.299 0 3.83 0.072 4.591 0.216 1.035 0.187 1.89 0.654 2.566 1.401 0.674 0.747 1.013 1.695 1.013 2.845 0 0.934-0.242 1.754-0.723 2.458" fill="#fff"/>
</svg>
